# xmcd
#
# Track frame offsets:
#	150
#	20605
#	38101
#	54619
#	70187
#
# Disc length: 1122 seconds
#
# Revision: 1
# Processed by: cddbd v1.5.1PL2 Copyright (c) Steve Scherf et al.
# Submitted via: audiograbber 1.82.02
#
DISCID=3e046005
DTITLE=Earl Gray - Earl Gray
DYEAR=2005
DGENRE=Blues
TTITLE0=Bad Luck
TTITLE1=Morning Breeze
TTITLE2=Long Hot Summer Night
TTITLE3=Stuck On A Cloud
TTITLE4=Still Learnin'
EXTD=
EXTT0=
EXTT1=
EXTT2=
EXTT3=
EXTT4=
PLAYORDER=
